<svg width="24" height="24" viewBox="0 0 24 24" fill="none" xmlns="http://www.w3.org/2000/svg">
<path d="M21 21V6.75L14.25 0H6C5.20435 0 4.44129 0.316071 3.87868 0.87868C3.31607 1.44129 3 2.20435 3 3V21C3 21.7956 3.31607 22.5587 3.87868 23.1213C4.44129 23.6839 5.20435 24 6 24H18C18.7956 24 19.5587 23.6839 20.1213 23.1213C20.6839 22.5587 21 21.7956 21 21ZM14.25 4.5C14.25 5.09674 14.4871 5.66903 14.909 6.09099C15.331 6.51295 15.9033 6.75 16.5 6.75H19.5V21C19.5 21.3978 19.342 21.7794 19.0607 22.0607C18.7794 22.342 18.3978 22.5 18 22.5H6C5.60218 22.5 5.22064 22.342 4.93934 22.0607C4.65804 21.7794 4.5 21.3978 4.5 21V3C4.5 2.60218 4.65804 2.22064 4.93934 1.93934C5.22064 1.65804 5.60218 1.5 6 1.5H14.25V4.5Z" fill="#8E95E4"/>
<path d="M6.9045 21.1305C6.61126 21.0149 6.37527 20.7886 6.2475 20.5005C5.955 19.9185 6.0525 19.3365 6.3675 18.8475C6.6645 18.387 7.1565 17.9955 7.713 17.667C8.41801 17.2674 9.16311 16.9431 9.936 16.6995C10.5352 15.6198 11.0673 14.5042 11.529 13.359C11.2538 12.733 11.0379 12.0827 10.884 11.4165C10.755 10.8165 10.7055 10.2225 10.815 9.71248C10.9275 9.18148 11.226 8.70448 11.79 8.47798C12.078 8.36248 12.39 8.29798 12.693 8.36248C12.8454 8.39493 12.9887 8.4609 13.1125 8.55559C13.2362 8.65029 13.3373 8.77135 13.4085 8.90998C13.5405 9.15598 13.5885 9.44398 13.599 9.71698C13.6095 9.99898 13.581 10.311 13.5285 10.638C13.4025 11.403 13.1235 12.339 12.7485 13.329C13.1627 14.2138 13.6546 15.0602 14.2185 15.858C14.8862 15.8059 15.5576 15.8311 16.2195 15.933C16.7655 16.032 17.3205 16.2255 17.6595 16.6305C17.8395 16.8465 17.949 17.1105 17.9595 17.4075C17.97 17.6955 17.889 17.9805 17.7525 18.252C17.6343 18.5036 17.4509 18.719 17.2215 18.876C16.9945 19.0235 16.7269 19.096 16.4565 19.083C15.96 19.062 15.4755 18.789 15.057 18.4575C14.548 18.0368 14.0894 17.5587 13.6905 17.0325C12.6762 17.148 11.6739 17.3517 10.695 17.6415C10.2468 18.4364 9.73515 19.1939 9.165 19.9065C8.727 20.4315 8.2515 20.8905 7.7745 21.087C7.50019 21.2099 7.18972 21.2255 6.9045 21.1305ZM8.973 18.279C8.723 18.394 8.4935 18.513 8.2845 18.636C7.7925 18.927 7.473 19.2105 7.314 19.4565C7.173 19.674 7.17 19.8315 7.254 19.998C7.27 20.03 7.283 20.052 7.293 20.064L7.3455 20.046C7.551 19.962 7.878 19.6935 8.298 19.188C8.53718 18.8958 8.76243 18.5924 8.973 18.279ZM11.433 16.284C11.934 16.1675 12.4394 16.071 12.948 15.9945C12.6753 15.5763 12.42 15.1469 12.183 14.7075C11.9476 15.2393 11.6975 15.7645 11.433 16.2825V16.284ZM15.102 16.959C15.328 17.204 15.5455 17.409 15.7545 17.574C16.1145 17.859 16.365 17.9535 16.5015 17.958C16.5381 17.9637 16.5755 17.9557 16.6065 17.9355C16.6693 17.8865 16.7179 17.8219 16.7475 17.748C16.8006 17.6565 16.831 17.5536 16.836 17.448C16.8345 17.4129 16.8207 17.3794 16.797 17.3535C16.719 17.2605 16.497 17.1255 16.02 17.04C15.7165 16.99 15.4096 16.9634 15.102 16.9605V16.959ZM12.117 11.7C12.2421 11.2925 12.3423 10.8777 12.417 10.458C12.463 10.176 12.482 9.94348 12.474 9.76048C12.4748 9.65949 12.4586 9.55909 12.426 9.46348C12.3509 9.4724 12.2776 9.49263 12.2085 9.52348C12.078 9.57598 11.9715 9.68248 11.9145 9.94798C11.8545 10.236 11.8695 10.6515 11.9835 11.181C12.0195 11.348 12.0645 11.521 12.1185 11.7H12.117Z" fill="#8E95E4"/>
</svg>
